<svg xmlns="http://www.w3.org/2000/svg" width="276" height="74" viewBox="0 0 276 74" role="img" aria-labelledby="title desc">
  <title id="title">CWD Rental logo</title>
  <desc id="desc">Comfort Wheels Drive rental logo for the Kyrgyzstan fleet</desc>
  <rect x="2" y="2" width="272" height="70" rx="8" fill="#ffffff" stroke="#d1d5db" stroke-width="4"/>
  <rect x="12" y="10" width="62" height="54" rx="8" fill="#0f766e"/>
  <path d="M15 59 C31 33 43 17 74 11 L74 64 L15 64 Z" fill="#f97316" opacity=".9"/>
  <path d="M24 39 H34 L39 32 H55 L62 39 H68 V49 H63 C62 43 58 40 53 40 C48 40 44 43 43 49 H36 C35 43 31 40 26 40 C21 40 17 43 16 49 H12 V41 C12 40 13 39 15 39 H19 L22 34 H28 L24 39 Z" fill="#ffffff"/>
  <circle cx="26" cy="49" r="5" fill="#0f172a"/>
  <circle cx="53" cy="49" r="5" fill="#0f172a"/>
  <path d="M32 38 H42 L45 34 H51 L56 38 H32 Z" fill="#0f766e"/>
  <text x="86" y="33" font-family="Manrope, Segoe UI, Arial, sans-serif" font-size="29" font-weight="900" fill="#020617">CWD Rental</text>
  <text x="88" y="56" font-family="Manrope, Segoe UI, Arial, sans-serif" font-size="12" font-weight="900" letter-spacing="5" fill="#64748b">KYRGYZSTAN FLEET</text>
</svg>
